<?xml version="1.0" standalone="no"?>
<!DOCTYPE svg PUBLIC "-//W3C//DTD SVG 20010904//EN"
 "http://www.w3.org/TR/2001/REC-SVG-20010904/DTD/svg10.dtd">
<svg version="1.0" xmlns="http://www.w3.org/2000/svg"
 width="512.000000pt" height="512.000000pt" viewBox="0 0 512.000000 512.000000"
 preserveAspectRatio="xMidYMid meet">
<metadata>
Created by potrace 1.11, written by Peter Selinger 2001-2013
</metadata>
<g transform="translate(0.000000,512.000000) scale(0.100000,-0.100000)"
fill="#000000" stroke="none">
<path d="M640 4161 l0 -321 53 -1 c106 -1 284 -14 332 -23 11 -2 47 -7 80 -11
90 -10 285 -52 423 -91 397 -113 784 -314 1117 -580 112 -90 386 -357 440
-429 17 -22 40 -51 53 -65 12 -14 58 -74 101 -135 244 -341 424 -733 517
-1130 18 -77 17 -72 39 -205 9 -52 18 -104 19 -115 9 -51 24 -271 25 -362 l1
-53 321 0 321 0 -6 158 c-4 88 -8 168 -10 178 -2 10 -7 55 -11 98 -4 43 -8 88
-11 100 -2 11 -6 38 -10 61 -3 22 -10 59 -15 83 -5 23 -11 57 -13 75 -9 62
-66 285 -107 413 -107 336 -261 655 -465 966 -37 57 -70 105 -73 108 -3 3 -33
41 -66 84 -581 770 -1451 1299 -2405 1460 -80 14 -176 28 -215 31 -38 4 -83 8
-100 11 -16 2 -99 6 -182 10 l-153 6 0 -321z"/>
<path d="M640 2881 l0 -321 48 -1 c217 -3 481 -58 687 -144 292 -122 604 -360
778 -593 23 -32 44 -59 47 -62 17 -15 117 -182 155 -257 67 -134 126 -294 151
-408 2 -11 6 -31 9 -45 26 -118 41 -243 44 -367 l1 -43 321 0 321 0 -6 123
c-24 475 -166 906 -427 1297 -374 563 -959 955 -1624 1089 -55 11 -122 23
-150 26 -27 4 -61 8 -75 10 -14 2 -82 7 -152 10 l-128 7 0 -321z"/>
<path d="M1072 1746 c-159 -39 -301 -153 -371 -299 -156 -323 10 -687 360
-791 61 -18 238 -13 302 8 176 57 318 199 373 373 19 61 26 213 13 278 -6 28
-28 86 -49 131 -64 133 -178 234 -320 284 -79 27 -228 35 -308 16z"/>
</g>
</svg>
